<svg width="20" height="20" viewBox="0 0 20 20" fill="none" xmlns="http://www.w3.org/2000/svg">
<path fill-rule="evenodd" clip-rule="evenodd" d="M18.9335 3.21868C18.7052 2.95219 18.4194 2.73786 18.0963 2.59091C17.7733 2.44396 17.421 2.368 17.0644 2.36842H3.94273L3.90864 2.09132C3.83889 1.51533 3.55429 0.984262 3.10882 0.598798C2.66335 0.213334 2.08796 0.000269837 1.49175 0H1.31158C1.09634 0 0.889908 0.0831765 0.737707 0.231232C0.585506 0.379287 0.5 0.580092 0.5 0.789474C0.5 0.998855 0.585506 1.19966 0.737707 1.34772C0.889908 1.49577 1.09634 1.57895 1.31158 1.57895H1.49175C1.69054 1.57897 1.8824 1.64997 2.03095 1.77846C2.17949 1.90695 2.2744 2.08401 2.29765 2.27605L3.41439 11.5129C3.53033 12.4735 4.0048 13.3593 4.74775 14.0021C5.49069 14.6449 6.4504 15 7.44471 15H15.9201C16.1353 15 16.3417 14.9168 16.4939 14.7688C16.6461 14.6207 16.7316 14.4199 16.7316 14.2105C16.7316 14.0011 16.6461 13.8003 16.4939 13.6523C16.3417 13.5042 16.1353 13.4211 15.9201 13.4211H7.44471C6.94238 13.4197 6.45279 13.2672 6.04305 12.9845C5.63331 12.7018 5.32348 12.3028 5.15604 11.8421H14.8301C15.7815 11.8422 16.7027 11.517 17.4327 10.9235C18.1627 10.33 18.6551 9.50581 18.8239 8.595L19.461 5.15763C19.5246 4.81658 19.5103 4.46611 19.4191 4.13103C19.328 3.79595 19.1622 3.48448 18.9335 3.21868ZM17.8679 4.87737L17.2299 8.31474C17.1286 8.86184 16.8327 9.35684 16.3939 9.71305C15.9552 10.0693 15.4016 10.264 14.8301 10.2632H4.89796L4.13426 3.94737H17.0644C17.1836 3.94668 17.3015 3.97154 17.4097 4.0202C17.518 4.06886 17.6138 4.14012 17.6905 4.2289C17.7672 4.31769 17.8229 4.42182 17.8535 4.5339C17.8842 4.64598 17.8891 4.76325 17.8679 4.87737ZM6.33317 19.9998C7.25365 19.9998 7.99984 19.2536 7.99984 18.3332C7.99984 17.4127 7.25365 16.6665 6.33317 16.6665C5.4127 16.6665 4.6665 17.4127 4.6665 18.3332C4.6665 19.2536 5.4127 19.9998 6.33317 19.9998ZM16.3333 18.3332C16.3333 19.2536 15.5871 19.9998 14.6667 19.9998C13.7462 19.9998 13 19.2536 13 18.3332C13 17.4127 13.7462 16.6665 14.6667 16.6665C15.5871 16.6665 16.3333 17.4127 16.3333 18.3332Z" fill="#F05454"/>
</svg>
