<svg xmlns="http://www.w3.org/2000/svg" width="22" height="22" fill="none"><path fill="#4f4f4f" fill-rule="evenodd" d="M18.433 3.219a2.422 2.422 0 0 0-.837-.628 2.486 2.486 0 0 0-1.032-.223H3.443l-.034-.277A2.348 2.348 0 0 0 2.609.6 2.474 2.474 0 0 0 .992 0h-.18a.823.823 0 0 0-.574.231A.779.779 0 0 0 0 .79c0 .21.086.41.238.559a.823.823 0 0 0 .574.23h.18c.199.001.39.072.539.2a.783.783 0 0 1 .267.498l1.116 9.237c.116.96.59 1.846 1.334 2.49A4.124 4.124 0 0 0 6.945 15h8.475a.823.823 0 0 0 .574-.231.779.779 0 0 0 .238-.559c0-.209-.086-.41-.238-.558a.823.823 0 0 0-.574-.23H6.945a2.482 2.482 0 0 1-1.402-.438 2.376 2.376 0 0 1-.887-1.142h9.674c.951 0 1.873-.325 2.603-.918a3.926 3.926 0 0 0 1.39-2.329l.638-3.437a2.3 2.3 0 0 0-.042-1.027 2.34 2.34 0 0 0-.486-.912Zm-1.065 1.658-.638 3.438a2.355 2.355 0 0 1-.836 1.398c-.439.356-.992.551-1.564.55H4.398l-.764-6.316h12.93a.83.83 0 0 1 .627.282.782.782 0 0 1 .177.648ZM5.833 20a1.667 1.667 0 1 0 0-3.334 1.667 1.667 0 0 0 0 3.334Zm10-1.667a1.667 1.667 0 1 1-3.333 0 1.667 1.667 0 0 1 3.333 0Z" clip-rule="evenodd"/></svg>