<svg xmlns="http://www.w3.org/2000/svg" viewBox="0 0 59.66 61.82"><defs><style>.cls-2{fill:#f79}.cls-3{fill:#4d4d4d}.cls-4{fill:#f44c81}.cls-5{fill:#d89078}.cls-8{fill:#ef608f}</style></defs><g id="Layer_2" data-name="Layer 2"><g id="Layer_1-2" data-name="Layer 1"><path d="M7.9 41.44a40.45 40.45 0 0 1-3.5-20.15c.51-7.46 2.76-15.72 8.13-19.17S26.37 0 33.73 2s13.61 4.34 16.9 8.78 3.62 10.89 5.43 18.16 5.07 15.38 2.87 21.34S49.1 60 41.6 60.91a32.32 32.32 0 0 1-20.7-4.64 34.46 34.46 0 0 1-13-14.83Z" style="fill:#efefef"/><path d="M21.88 61.57a5.3 5.3 0 1 1 5.3-5.3 5.31 5.31 0 0 1-5.3 5.3Z" class="cls-2"/><path d="M21.88 51.22a5 5 0 1 1-5.05 5.05 5 5 0 0 1 5.05-5.05m0-.5a5.55 5.55 0 1 0 5.55 5.55 5.56 5.56 0 0 0-5.55-5.55Z" class="cls-3"/><path d="M21.88 58.2a1.94 1.94 0 1 1 1.93-1.93 1.93 1.93 0 0 1-1.93 1.93Z" class="cls-4"/><path d="M21.88 54.58a1.69 1.69 0 1 1-1.68 1.69 1.69 1.69 0 0 1 1.68-1.69m0-.5a2.19 2.19 0 1 0 2.18 2.19 2.19 2.19 0 0 0-2.18-2.19Z" class="cls-3"/><path d="M45.67 61.57a5.3 5.3 0 1 1 5.33-5.3 5.31 5.31 0 0 1-5.33 5.3Z" class="cls-2"/><path d="M45.67 51.22a5 5 0 1 1-5.05 5.05 5 5 0 0 1 5.05-5.05m0-.5a5.55 5.55 0 1 0 5.55 5.55 5.56 5.56 0 0 0-5.55-5.55Z" class="cls-3"/><circle cx="45.67" cy="56.27" r="1.93" class="cls-4"/><path d="M45.67 54.58A1.69 1.69 0 1 1 44 56.27a1.69 1.69 0 0 1 1.68-1.69m0-.5a2.19 2.19 0 1 0 2.19 2.19 2.19 2.19 0 0 0-2.19-2.19Z" class="cls-3"/><path d="M17.1 51a4.81 4.81 0 0 1-4.8-4.79 4.75 4.75 0 0 1 4.16-4.73h.07a1.91 1.91 0 0 1 .57-.05 1.35 1.35 0 0 1 .59.14.26.26 0 0 1 .13.31l-.82 2.2a.25.25 0 0 1-.21.16 1.94 1.94 0 0 0 .27 3.86h32.25a1.43 1.43 0 0 1 0 2.86Z" class="cls-5"/><path d="M17.1 41.62a1 1 0 0 1 .48.12L16.8 44a2.19 2.19 0 0 0 .3 4.35h32.21a1.18 1.18 0 0 1 0 2.36H17.1a4.55 4.55 0 0 1-4.55-4.55 4.51 4.51 0 0 1 3.94-4.48h.1a1.88 1.88 0 0 1 .51 0m0-.5a2.06 2.06 0 0 0-.67.07 5 5 0 0 0-4.37 5 5.06 5.06 0 0 0 5.05 5.05h32.2a1.68 1.68 0 0 0 0-3.36H17.1a1.69 1.69 0 0 1-.24-3.36.49.49 0 0 0 .41-.33l.78-2.26a.5.5 0 0 0-.24-.61 1.65 1.65 0 0 0-.71-.17Z" class="cls-3"/><path d="M14.3 18.73a.18.18 0 0 1-.1 0c-1.76-.78-2.44-1.11-2.7-1.25a.27.27 0 0 1-.13-.17l-.74-3.37h-9a1.43 1.43 0 1 1 0-2.85h10.1a1.42 1.42 0 0 1 1.4 1.12l1.37 6.24a.27.27 0 0 1-.09.25.28.28 0 0 1-.11.03Z" class="cls-5"/><path d="M11.78 11.32a1.17 1.17 0 0 1 1.15.92l1.37 6.24c-1.79-.79-2.45-1.11-2.68-1.24l-.79-3.57H1.68a1.18 1.18 0 1 1 0-2.35h10.1m0-.5H1.68a1.68 1.68 0 1 0 0 3.35h8.75l.7 3.18a.49.49 0 0 0 .25.33c.26.14.95.47 2.72 1.26a.48.48 0 0 0 .2 0 .46.46 0 0 0 .32-.11.49.49 0 0 0 .17-.49l-1.37-6.25a1.66 1.66 0 0 0-1.64-1.31Z" class="cls-3"/><path d="M17.17 44.73a.26.26 0 0 1-.25-.19l-.74-3.3-5.25-23.64a.23.23 0 0 1 .05-.21.25.25 0 0 1 .19-.09h44.6a1.9 1.9 0 0 1 1.55.77 2 2 0 0 1 .31 1.7L50.9 43.34a1.94 1.94 0 0 1-1.9 1.39Z" style="fill:#ffd9c7"/><path d="M55.78 17.55a1.64 1.64 0 0 1 1.34.67 1.72 1.72 0 0 1 .27 1.48l-6.73 23.57A1.7 1.7 0 0 1 49 44.48H17.17l-.74-3.3-5.26-23.63h44.61m0-.5H11.17a.48.48 0 0 0-.48.6l5.25 23.64.74 3.3a.49.49 0 0 0 .49.39H49a2.2 2.2 0 0 0 2.1-1.57l6.73-23.57a2.27 2.27 0 0 0-.35-1.92 2.13 2.13 0 0 0-1.74-.87Z" class="cls-3"/><path d="M13.17 17.55h-2l5.26 23.63.74 3.3h2l-.74-3.3-5.26-23.63z" style="fill:#f2b9a7"/><path d="M17.83 56.27a5 5 0 0 1 4.55-5 4.23 4.23 0 0 0-.5-.05 5.05 5.05 0 1 0 0 10.1h.5a5 5 0 0 1-4.55-5.05ZM41.62 56.27a5 5 0 0 1 4.55-5 3.85 3.85 0 0 0-.5-.05 5.05 5.05 0 0 0 0 10.1h.5a5.05 5.05 0 0 1-4.55-5.05Z" class="cls-8"/></g></g></svg>